<svg version="1.1" id="Layer_1" xmlns="http://www.w3.org/2000/svg" xmlns:xlink="http://www.w3.org/1999/xlink" x="0px" y="0px"
	 viewBox="0 0 512 512" style="enable-background:new 0 0 512 512;" xml:space="preserve">
<path d="M437.333,64H74.667C42.24,64,16,90.24,16,122.667v266.667C16,421.76,42.24,448,74.667,448h362.667
	C469.76,448,496,421.76,496,389.333V122.667C496,90.24,469.76,64,437.333,64z M448,389.333C448,398.24,440.853,405.333,432,405.333
	H80c-8.853,0-16-7.093-16-16V122.667c0-8.853,7.147-16,16-16h352c8.853,0,16,7.147,16,16V389.333z"/>
<path d="M128,192h256v42.667H128V192z"/>
<path d="M128,298.667h170.667V341.333H128V298.667z"/>
</svg>
